<?xml version="1.0" encoding="utf-8"?>
<!-- Generator: Adobe Illustrator 22.0.0, SVG Export Plug-In . SVG Version: 6.00 Build 0)  -->
<svg version="1.1" id="Layer_1" xmlns="http://www.w3.org/2000/svg" xmlns:xlink="http://www.w3.org/1999/xlink" x="0px" y="0px"
	 viewBox="0 0 517.1 501.2" style="enable-background:new 0 0 517.1 501.2;" xml:space="preserve">
<style type="text/css">
	.st0{fill:url(#SVGID_1_);}
	.st1{fill:url(#SVGID_2_);}
	.st2{fill:url(#SVGID_3_);}
	.st3{fill:url(#SVGID_4_);}
	.st4{fill:url(#SVGID_5_);}
</style>
<g>
	<linearGradient id="SVGID_1_" gradientUnits="userSpaceOnUse" x1="474.5691" y1="38.0976" x2="50.0903" y2="464.0763">
		<stop  offset="0" style="stop-color:#824146"/>
		<stop  offset="1" style="stop-color:#6E2B30"/>
	</linearGradient>
	<path class="st0" d="M361.5,205.9c13.8,0,26.9-5.2,37-14.6L386.1,178c-6.7,6.3-15.5,9.7-24.6,9.7c-19.9,0-36.2-16.2-36.2-36.2
		s16.2-36.2,36.2-36.2c19.9,0,36.2,16.2,36.2,36.2c0,5.8-1.3,11.4-4,16.5l16.1,8.3c3.9-7.6,6-16.2,6-24.8
		c-0.1-29.9-24.4-54.2-54.3-54.2c-29.9,0-54.3,24.3-54.3,54.3S331.5,205.9,361.5,205.9z"/>
	<linearGradient id="SVGID_2_" gradientUnits="userSpaceOnUse" x1="492.2619" y1="55.7281" x2="67.7831" y2="481.7068">
		<stop  offset="0" style="stop-color:#824146"/>
		<stop  offset="1" style="stop-color:#6E2B30"/>
	</linearGradient>
	<path class="st1" d="M108.3,404.7c0,19.9,16.2,36.2,36.2,36.2s36.2-16.2,36.2-36.2c0-19.9-16.2-36.2-36.2-36.2
		S108.3,384.8,108.3,404.7z M144.5,386.6c10,0,18.1,8.1,18.1,18.1s-8.1,18.1-18.1,18.1s-18.1-8.1-18.1-18.1S134.5,386.6,144.5,386.6
		z"/>
	<linearGradient id="SVGID_3_" gradientUnits="userSpaceOnUse" x1="356.498" y1="-79.5578" x2="-67.9808" y2="346.4209">
		<stop  offset="0" style="stop-color:#824146"/>
		<stop  offset="1" style="stop-color:#6E2B30"/>
	</linearGradient>
	<path class="st2" d="M90.2,160.6c-15,0-27.1,12.2-27.1,27.1c0,15,12.2,27.1,27.1,27.1c14.9,0,27.1-12.2,27.1-27.1
		C117.3,172.7,105.2,160.6,90.2,160.6z M90.2,196.7c-5,0-9-4.1-9-9c0-4.9,4.1-9,9-9c4.9,0,9,4.1,9,9
		C99.2,192.6,95.2,196.7,90.2,196.7z"/>
	<linearGradient id="SVGID_4_" gradientUnits="userSpaceOnUse" x1="438.0616" y1="1.7186" x2="13.5828" y2="427.6973">
		<stop  offset="0" style="stop-color:#824146"/>
		<stop  offset="1" style="stop-color:#6E2B30"/>
	</linearGradient>
	<path class="st3" d="M325.4,254.2v24.4h72.3v-24.4c3.1-1.1,6.1-2.4,9-3.7l18.1,16V266l0.6,0.6l51.2-51.1l-17.2-17.2
		c1.6-3.4,3.1-7,4.3-10.6h24.4v-72.3h-24.4c-1.3-3.6-2.7-7.2-4.3-10.6l17.2-17.2l-51.1-51.1l-17.2,17.2c-3.4-1.6-7-3.1-10.6-4.4
		V24.9h-72.3v24.4c-3.6,1.3-7.2,2.7-10.6,4.3l-17.2-17.2l-43.1,43.1L96.8,124.8c-2.2-0.2-4.4-0.3-6.6-0.3c-2.7,0-5.3,0.2-8,0.6
		c-0.6,0.1-1.3,0.2-1.9,0.3c-2.2,0.4-4.4,0.8-6.6,1.4c-0.3,0.1-0.7,0.2-1,0.3c-5.3,1.5-10.4,3.8-15,6.6
		c-7.7,4.6-14.3,10.8-19.4,18.1c-1.8,2.6-3.4,5.4-4.8,8.2c-0.1,0.3-0.3,0.6-0.4,0.9c-1.4,2.9-2.6,5.9-3.5,9
		c-1.7,5.7-2.7,11.8-2.7,18.1c0,2.9,0.3,5.8,0.6,8.7c0.1,1,0.4,1.9,0.5,2.9c0.4,1.9,0.7,3.8,1.3,5.6c0.3,1,0.6,1.9,0.9,2.8
		c0.6,1.9,1.3,3.7,2.1,5.5c0.3,0.8,0.7,1.5,1.1,2.3c6.4,13,17.2,23.6,30.4,29.7l17,125.2c-5.6,10.2-8.7,21.9-8.7,34.4
		c0,39.9,32.5,72.3,72.3,72.3c39.8,0,72.3-32.5,72.3-72.3c0-27.5-15.4-51.5-38.1-63.7l-43.3-109c7.6-7.8,13.2-17.6,16.1-28.5
		l83.5-37.9v22.1h24.4c1.3,3.6,2.7,7.2,4.3,10.6l-17.2,17.2l51.2,51.2l17.2-17.2C318.2,251.5,321.8,253,325.4,254.2z M198.7,404.7
		c0,29.9-24.3,54.3-54.3,54.3s-54.3-24.3-54.3-54.3s24.3-54.3,54.3-54.3S198.7,374.8,198.7,404.7z M156.2,333.4
		c-3.8-0.6-7.7-1-11.8-1c-18.4,0-35.2,7-48,18.4L82.8,250.5c2.4,0.3,4.9,0.5,7.4,0.5c10.9,0,21.2-2.8,30.2-7.7L156.2,333.4z
		 M90.2,232.9c-24.9,0-45.2-20.3-45.2-45.2c0-24.9,20.3-45.2,45.2-45.2c24.9,0,45.2,20.3,45.2,45.2
		C135.4,212.6,115.1,232.9,90.2,232.9z M234.9,145.7l-81.6,37.1c-1.5-19.7-12.1-37-27.6-47.5l130.9-37.5l7,7
		c-1.6,3.4-3.1,7-4.3,10.6h-24.4V145.7z M297.5,241L272,215.5l13.9-13.9l-3.3-6c-3.4-6-6-12.5-8-19.4l-1.9-6.6H253v-36.2h19.7
		l1.9-6.6c1.9-6.9,4.6-13.4,8-19.4l3.3-6L272,87.6L297.5,62l13.9,13.9l6-3.3c6-3.4,12.5-6,19.4-8l6.6-1.9V43h36.2v19.7l6.6,1.9
		c6.9,1.9,13.4,4.6,19.4,8l6,3.3L425.4,62L451,87.6l-13.9,13.9l3.3,6c3.4,6,6,12.5,8,19.4l1.9,6.6H470v36.2h-19.7l-1.9,6.6
		c-1.9,6.9-4.6,13.4-8,19.4l-3.3,6l13.9,13.8L425.4,241l-13.9-13.9l-6,3.3c-6,3.4-12.5,6-19.4,8l-6.6,1.9V260h-36.2v-19.7l-6.6-1.9
		c-6.9-1.9-13.4-4.6-19.4-8l-6-3.3L297.5,241z"/>
	<linearGradient id="SVGID_5_" gradientUnits="userSpaceOnUse" x1="610.9021" y1="173.9505" x2="186.4233" y2="599.9292">
		<stop  offset="0" style="stop-color:#824146"/>
		<stop  offset="1" style="stop-color:#6E2B30"/>
	</linearGradient>
	<path class="st4" d="M496.9,386.4c1.1-3.5,0.2-7.4-2.5-10l-33.7-33.7c-2.9-2.9-7-4.6-11.2-4.6h-27.3c-1.1,0-2.1,0.2-3.1,0.5
		c-1-0.3-2.1-0.5-3.2-0.5h-33.6c-1.1,0-2.2,0.2-3.2,0.5c-1-0.3-2-0.5-3.1-0.5h0h-27.3c-4.2,0-8.2,1.7-11.2,4.6l-33.7,33.7
		c-2.7,2.7-3.6,6.5-2.4,10.1c-1.1,3.5-0.2,7.4,2.4,10.1l81.1,81.1c1.9,1.9,4.5,2.9,7.1,2.9c0.2,0,0.4,0,0.7,0c1.8,1.5,4,2.3,6.4,2.3
		s4.7-0.9,6.4-2.3c0.2,0,0.4,0,0.7,0c2.6,0,5.1-1,7.1-2.9l81-81c1.9-1.8,3-4.4,3-7.2C497.4,388.3,497.2,387.3,496.9,386.4z
		 M385.4,351.6c0.4-1.1,0.7-2.3,0.7-3.6h26.2c0,1.1,0.2,2.2,0.6,3.3l9.8,28.1h-47L385.4,351.6z M344.7,349.7
		c1.1-1.1,2.6-1.7,4.1-1.7h23l-11,31.4H315L344.7,349.7z M315,393.4h45.8l24.7,70.5L315,393.4z M399.2,460.5l-23.5-67.1h47
		L399.2,460.5z M412.9,463.9l24.7-70.5h45.8L412.9,463.9z M437.6,379.4l-11-31.4h23c1.5,0,3,0.6,4.1,1.7l29.7,29.7H437.6z"/>
</g>
</svg>
