<?xml version="1.0" encoding="utf-8"?>
<!-- Generator: Adobe Illustrator 22.0.0, SVG Export Plug-In . SVG Version: 6.00 Build 0)  -->
<svg version="1.1" id="Layer_1" xmlns="http://www.w3.org/2000/svg" xmlns:xlink="http://www.w3.org/1999/xlink" x="0px" y="0px"
	 viewBox="0 0 517.1 501.2" style="enable-background:new 0 0 517.1 501.2;" xml:space="preserve">
<style type="text/css">
	.st0{fill:url(#SVGID_1_);}
	.st1{fill:url(#SVGID_2_);}
	.st2{fill:url(#SVGID_3_);}
	.st3{fill:url(#SVGID_4_);}
	.st4{fill:url(#SVGID_5_);}
	.st5{fill:url(#SVGID_6_);}
	.st6{fill:url(#SVGID_7_);}
</style>
<g>
	<linearGradient id="SVGID_1_" gradientUnits="userSpaceOnUse" x1="398.2113" y1="91.5314" x2="72.7276" y2="388.5166">
		<stop  offset="0" style="stop-color:#824146"/>
		<stop  offset="1" style="stop-color:#6E2B30"/>
	</linearGradient>
	<path class="st0" d="M258.5,426.1c114.2,0,207.1-92.9,207.1-207.1S372.8,11.8,258.5,11.8C144.3,11.8,51.4,104.8,51.4,219
		S144.3,426.1,258.5,426.1z M191,397.7V306h11v58.5c0,4.4,3.6,8,8,8h91.6c4.4,0,8-3.6,8-8V306h11v93.7c-19.5,6.7-40.3,10.3-62,10.3
		C234.8,410.1,212,405.7,191,397.7z M258.5,27.8c105.4,0,191.1,85.7,191.1,191.1c0,46.9-17,89.9-45.1,123.2
		c-2.5-16.7-8.4-41.2-22.4-50.5c-11.1-7.4-34.7-24.8-50.7-36.6c-3.4,3.5-7,6.9-10.9,10.3c-0.3,0.3-0.7,0.6-1,0.8
		c16,11.9,41.6,30.7,53.7,38.8c10.6,7.1,15.8,37.2,16.8,52.4c-15.6,14.8-33.7,27.1-53.6,36V301c0-6.1-4.9-11-11-11h-21
		c-6.1,0-11,4.9-11,11v55.5H218V301c0-6.1-4.9-11-11-11h-21c-6.1,0-11,4.9-11,11v89.8c-18.5-9-35.3-21-49.9-35.2
		c1.3-15.7,6.5-43.8,16.7-50.6c12.1-8.1,37.7-26.9,53.7-38.8c-0.3-0.3-0.7-0.6-1-0.8c-3.9-3.4-7.5-6.8-10.9-10.3
		c-16,11.8-39.5,29.2-50.7,36.6c-13.4,8.9-19.4,31.8-22,48.4c-27.1-33-43.4-75.2-43.4-121.1C67.4,113.6,153.2,27.8,258.5,27.8z"/>
	<linearGradient id="SVGID_2_" gradientUnits="userSpaceOnUse" x1="419.3946" y1="114.7474" x2="93.9109" y2="411.7325">
		<stop  offset="0" style="stop-color:#824146"/>
		<stop  offset="1" style="stop-color:#6E2B30"/>
	</linearGradient>
	<polygon class="st1" points="103.1,396.5 94,378.1 85,396.5 64.6,399.4 79.3,413.8 75.9,434 94,424.5 112.2,434 108.8,413.8 
		123.5,399.4 	"/>
	<linearGradient id="SVGID_3_" gradientUnits="userSpaceOnUse" x1="568.8635" y1="278.5592" x2="243.3797" y2="575.5444">
		<stop  offset="0" style="stop-color:#824146"/>
		<stop  offset="1" style="stop-color:#6E2B30"/>
	</linearGradient>
	<polygon class="st2" points="432.1,396.5 423,378.1 414,396.5 393.6,399.4 408.3,413.8 404.9,434 423,424.5 441.2,434 437.8,413.8 
		452.5,399.4 	"/>
	<linearGradient id="SVGID_4_" gradientUnits="userSpaceOnUse" x1="476.6781" y1="177.5278" x2="151.1944" y2="474.513">
		<stop  offset="0" style="stop-color:#824146"/>
		<stop  offset="1" style="stop-color:#6E2B30"/>
	</linearGradient>
	<polygon class="st3" points="185.4,436.5 176.3,418.1 167.2,436.5 146.9,439.4 161.6,453.8 158.1,474 176.3,464.5 194.5,474 
		191,453.8 205.7,439.4 	"/>
	<linearGradient id="SVGID_5_" gradientUnits="userSpaceOnUse" x1="551.4125" y1="259.4338" x2="225.9288" y2="556.4189">
		<stop  offset="0" style="stop-color:#824146"/>
		<stop  offset="1" style="stop-color:#6E2B30"/>
	</linearGradient>
	<polygon class="st4" points="349.9,436.5 340.8,418.1 331.7,436.5 311.4,439.4 326.1,453.8 322.6,474 340.8,464.5 359,474 
		355.5,453.8 370.2,439.4 	"/>
	<linearGradient id="SVGID_6_" gradientUnits="userSpaceOnUse" x1="521.9798" y1="227.1767" x2="196.4961" y2="524.1618">
		<stop  offset="0" style="stop-color:#824146"/>
		<stop  offset="1" style="stop-color:#6E2B30"/>
	</linearGradient>
	<polygon class="st5" points="267.6,452.4 258.5,434 249.5,452.4 229.1,455.4 243.8,469.7 240.4,490 258.5,480.4 276.7,490 
		273.3,469.7 288,455.4 	"/>
	<linearGradient id="SVGID_7_" gradientUnits="userSpaceOnUse" x1="370.6934" y1="61.3729" x2="45.2097" y2="358.358">
		<stop  offset="0" style="stop-color:#824146"/>
		<stop  offset="1" style="stop-color:#6E2B30"/>
	</linearGradient>
	<path class="st6" d="M201.5,251.1c19.5,16.7,42.3,27.5,58.1,27.5c14.8,0,37.9-13.9,54.3-27.7c13.5-11.4,36.1-34.1,36.1-58.7v-47.8
		c0-22.9-9.8-44.6-27.6-61.2c-17.1-16-40-25.2-62.8-25.2c-49.2,0-92.4,40.4-92.4,86.4v47.8C167.1,210.9,179.7,232.4,201.5,251.1z
		 M259.6,74c33.2,0,63.1,23.2,71.8,52.7c-1.1,3.3-4.2,10.2-12.2,10.2c-5.2,0-10.4-2.7-17-6.2c-10.4-5.5-23.4-12.2-43.6-12.2
		c-25,0-37.2,6.7-47.9,12.7c-3.6,2-7,3.9-10.7,5.3c-5.8,2.3-11.4-6.4-13.8-10.8C195.5,96.7,225.8,74,259.6,74z M183.1,147.3
		c4.2,3.4,9.1,5.7,14.7,5.7c2.5,0,5.2-0.5,7.9-1.6c4.7-1.8,8.7-4.1,12.6-6.2c9.9-5.5,19.2-10.7,40.1-10.7c16.3,0,26.4,5.3,36.1,10.4
		c7.9,4.1,15.3,8,24.5,8c6,0,10.9-1.7,14.8-4.2v43.4c0,13.1-11.4,30.5-30.4,46.5c-17.8,15-36.3,23.9-44,23.9h0
		c-24.6,0-76.4-39.4-76.4-70.4V147.3z"/>
</g>
</svg>
