<?xml version="1.0" encoding="utf-8"?>
<!-- Generator: Adobe Illustrator 22.0.0, SVG Export Plug-In . SVG Version: 6.00 Build 0)  -->
<svg version="1.1" id="Layer_1" xmlns="http://www.w3.org/2000/svg" xmlns:xlink="http://www.w3.org/1999/xlink" x="0px" y="0px"
	 viewBox="0 0 517.1 501.2" style="enable-background:new 0 0 517.1 501.2;" xml:space="preserve">
<style type="text/css">
	.st0{clip-path:url(#SVGID_2_);fill:#7D3C41;}
	.st1{clip-path:url(#SVGID_2_);fill:#7C3B40;}
	.st2{clip-path:url(#SVGID_2_);fill:#7B3A3F;}
	.st3{clip-path:url(#SVGID_2_);fill:#7A393E;}
	.st4{clip-path:url(#SVGID_2_);fill:#7E3D42;}
	.st5{clip-path:url(#SVGID_2_);fill:#79383D;}
	.st6{fill:url(#SVGID_3_);}
	.st7{fill:url(#SVGID_4_);}
</style>
<g>
	<g>
		<g>
			<defs>
				<path id="SVGID_1_" d="M298.4,165.2c11.1,9.3,16.7,22.1,16.7,38.3s-5.6,29-16.7,38.3c-11.1,9.3-26.4,13.9-45.8,13.9h-37v45.4
					h-21.4V151.3h58.4C272,151.3,287.3,155.9,298.4,165.2z M283,228.5c7.1-5.8,10.7-14.1,10.7-24.9c0-10.8-3.6-19.2-10.7-24.9
					c-7.1-5.8-17.5-8.7-31-8.7h-36.4v67.2h36.4C265.5,237.1,275.8,234.2,283,228.5z"/>
			</defs>
			<clipPath id="SVGID_2_">
				<use xlink:href="#SVGID_1_"  style="overflow:visible;"/>
			</clipPath>
			<polygon class="st0" points="293.7,206.8 257.3,169.9 293.7,169.9 			"/>
			<polygon class="st1" points="293.7,222 278.3,237.1 273.2,237.1 215.5,178.7 215.5,169.9 257.3,169.9 293.7,206.8 			"/>
			<polygon class="st2" points="222.7,237.1 215.5,229.8 215.5,178.7 273.2,237.1 			"/>
			<polygon class="st3" points="215.5,229.8 222.7,237.1 215.5,237.1 			"/>
			<polygon class="st4" points="315.1,177.4 289.3,151.3 315.1,151.3 			"/>
			<polygon class="st0" points="315.1,228.5 238.9,151.3 289.3,151.3 315.1,177.4 			"/>
			<polygon class="st1" points="315.1,229.9 290.2,254.4 194.1,157 194.1,151.3 238.9,151.3 315.1,228.5 			"/>
			<polygon class="st2" points="290.2,254.4 264.6,279.6 194.1,208.1 194.1,157 			"/>
			<polygon class="st3" points="264.6,279.6 242.8,301.1 235.4,301.1 194.1,259.2 194.1,208.1 			"/>
			<polygon class="st5" points="194.1,259.2 235.4,301.1 194.1,301.1 			"/>
		</g>
	</g>
</g>
<g>
	<linearGradient id="SVGID_3_" gradientUnits="userSpaceOnUse" x1="368.725" y1="41.0788" x2="104.7382" y2="405.5606">
		<stop  offset="0" style="stop-color:#824146"/>
		<stop  offset="1" style="stop-color:#6E2B30"/>
	</linearGradient>
	<path class="st6" d="M247.6,473.9l-5.7-5.7c-6.7-6.7-164.8-166.1-164.8-258.1c0-94,76.5-170.4,170.4-170.4s170.4,76.5,170.4,170.4
		c0,92-158.1,251.4-164.8,258.1L247.6,473.9z M247.6,55.7c-85.2,0-154.4,69.3-154.4,154.4c0,76.1,126,211.4,154.4,241
		c28.5-29.6,154.4-164.9,154.4-241C402.1,125,332.8,55.7,247.6,55.7z"/>
</g>
<g>
	<linearGradient id="SVGID_4_" gradientUnits="userSpaceOnUse" x1="369.2946" y1="41.4915" x2="105.3079" y2="405.9732">
		<stop  offset="0" style="stop-color:#824146"/>
		<stop  offset="1" style="stop-color:#6E2B30"/>
	</linearGradient>
	<path class="st7" d="M247.6,434.3l-4.8-4.8c-5.7-5.7-139.5-140.6-139.5-218.4c0-79.5,64.7-144.2,144.2-144.2
		s144.2,64.7,144.2,144.2c0,77.8-133.8,212.7-139.5,218.4L247.6,434.3z M247.6,80.4c-72.1,0-130.7,58.6-130.7,130.7
		c0,64.4,106.6,178.9,130.7,203.9c24.1-25,130.7-139.5,130.7-203.9C378.3,139,319.7,80.4,247.6,80.4z"/>
</g>
</svg>
