<?xml version="1.0" encoding="utf-8"?>
<!-- Generator: Adobe Illustrator 22.0.0, SVG Export Plug-In . SVG Version: 6.00 Build 0)  -->
<svg version="1.1" id="Layer_1" xmlns="http://www.w3.org/2000/svg" xmlns:xlink="http://www.w3.org/1999/xlink" x="0px" y="0px"
	 viewBox="0 0 517.1 501.2" style="enable-background:new 0 0 517.1 501.2;" xml:space="preserve">
<style type="text/css">
	.st0{fill:url(#SVGID_1_);}
	.st1{fill:url(#SVGID_2_);}
</style>
<g>
	<linearGradient id="SVGID_1_" gradientUnits="userSpaceOnUse" x1="454.3605" y1="58.2384" x2="88.3788" y2="440.7193">
		<stop  offset="0" style="stop-color:#824146"/>
		<stop  offset="1" style="stop-color:#6E2B30"/>
	</linearGradient>
	<path class="st0" d="M453.5,232.8c-12.9-9.2-29.9-8.3-41.5-6.1c-0.2-17.7-1.8-28.7-1.8-28.9c-0.7-4.6-4.6-8-9.3-8H84
		c-4.7,0-8.5,3.3-9.2,7.9c-0.2,1.6-23.1,161.7,91,237c1.5,1,3.3,1.5,5.1,1.5h143.1c1.8,0,3.6-0.5,5.1-1.5
		c23.8-15.7,43.5-36.6,58.5-62.2l6.8-3.8c21.8-12.2,42.4-23.7,58.2-38.9c18-17.3,26.8-37.3,26.8-60.9
		C469.4,252.5,464,240.3,453.5,232.8z M390.5,274.6c-6.2,46-25.2,106.1-79.3,143.1H173.8c-54.8-37.4-73.7-97.4-79.8-143.1H390.5z
		 M450.7,269.1c0,34.5-23.7,53.6-58.5,73.9c14.1-35.3,18.5-71.2,19.6-97.1c8.6-2.1,22.8-3.6,30.9,2.1
		C448,251.8,450.7,258.9,450.7,269.1z M392.5,255.9H92.2c-1.5-21-0.5-38.2,0.2-47.4h300.2C393.3,217.8,394.1,234.9,392.5,255.9z"/>
	<linearGradient id="SVGID_2_" gradientUnits="userSpaceOnUse" x1="368.0116" y1="-24.3857" x2="2.0299" y2="358.0952">
		<stop  offset="0" style="stop-color:#824146"/>
		<stop  offset="1" style="stop-color:#6E2B30"/>
	</linearGradient>
	<path class="st1" d="M183.8,116.6h117.6c5.3,0,9.6,4.3,9.6,9.6s-4.3,9.6-9.6,9.6h-50c-18.9,0-34.3,15.4-34.3,34.3v3.1
		c0,5.2,4.2,9.3,9.3,9.3s9.3-4.2,9.3-9.3v-3.1c0-8.6,7-15.6,15.6-15.6h50c15.6,0,28.3-12.7,28.3-28.3c0-15.6-12.7-28.3-28.3-28.3
		H183.8c-5.6,0-10.1-4.5-10.1-10.1c0-5.6,4.5-10.1,10.1-10.1h63c15.9,0,28.8-12.9,28.8-28.8c0-5.2-4.2-9.3-9.3-9.3s-9.3,4.2-9.3,9.3
		c0,5.6-4.5,10.1-10.1,10.1h-63C167.9,59,155,71.9,155,87.8C155,103.7,167.9,116.6,183.8,116.6z"/>
</g>
</svg>
