<?xml version="1.0" encoding="utf-8"?>
<!-- Generator: Adobe Illustrator 22.0.0, SVG Export Plug-In . SVG Version: 6.00 Build 0)  -->
<svg version="1.1" id="Layer_1" xmlns="http://www.w3.org/2000/svg" xmlns:xlink="http://www.w3.org/1999/xlink" x="0px" y="0px"
	 viewBox="0 0 517.1 501.2" style="enable-background:new 0 0 517.1 501.2;" xml:space="preserve">
<style type="text/css">
	.st0{fill:url(#SVGID_1_);}
	.st1{fill:url(#SVGID_2_);}
	.st2{fill:url(#SVGID_3_);}
	.st3{fill:url(#SVGID_4_);}
	.st4{fill:url(#SVGID_5_);}
	.st5{fill:url(#SVGID_6_);}
	.st6{fill:url(#SVGID_7_);}
	.st7{fill:url(#SVGID_8_);}
	.st8{fill:url(#SVGID_9_);}
	.st9{fill:url(#SVGID_10_);}
	.st10{fill:url(#SVGID_11_);}
	.st11{fill:url(#SVGID_12_);}
	.st12{fill:url(#SVGID_13_);}
	.st13{fill:url(#SVGID_14_);}
	.st14{fill:url(#SVGID_15_);}
	.st15{fill:url(#SVGID_16_);}
	.st16{fill:url(#SVGID_17_);}
	.st17{fill:url(#SVGID_18_);}
	.st18{fill:url(#SVGID_19_);}
	.st19{fill:url(#SVGID_20_);}
	.st20{fill:url(#SVGID_21_);}
	.st21{fill:url(#SVGID_22_);}
	.st22{fill:url(#SVGID_23_);}
	.st23{fill:url(#SVGID_24_);}
	.st24{fill:url(#SVGID_25_);}
	.st25{fill:url(#SVGID_26_);}
	.st26{fill:url(#SVGID_27_);}
	.st27{fill:url(#SVGID_28_);}
</style>
<g>
	<g>
		<linearGradient id="SVGID_1_" gradientUnits="userSpaceOnUse" x1="351.2386" y1="-30.0553" x2="-16.2431" y2="383.924">
			<stop  offset="0" style="stop-color:#824146"/>
			<stop  offset="1" style="stop-color:#6E2B30"/>
		</linearGradient>
		<path class="st0" d="M128.5,384.2c21.4,0,38.8-17.4,38.8-38.8V150.6c0-21.4-17.4-38.8-38.8-38.8H80.4c-21.4,0-38.8,17.4-38.8,38.8
			v194.8c0,21.4,17.4,38.8,38.8,38.8H128.5z M128.5,367H80.4c-11.9,0-21.6-9.7-21.6-21.6V150.6c0-11.9,9.7-21.6,21.6-21.6h48.1
			c11.9,0,21.6,9.7,21.6,21.6v194.8C150.1,357.3,140.4,367,128.5,367z"/>
		<linearGradient id="SVGID_2_" gradientUnits="userSpaceOnUse" x1="302.2467" y1="-73.5445" x2="-65.235" y2="340.4348">
			<stop  offset="0" style="stop-color:#824146"/>
			<stop  offset="1" style="stop-color:#6E2B30"/>
		</linearGradient>
		<polygon class="st1" points="146.8,152.1 137.9,137.5 107.6,155.9 70.2,137.4 62.6,152.8 108.5,175.5 		"/>
		<linearGradient id="SVGID_3_" gradientUnits="userSpaceOnUse" x1="317.4637" y1="-60.0365" x2="-50.0179" y2="353.9427">
			<stop  offset="0" style="stop-color:#824146"/>
			<stop  offset="1" style="stop-color:#6E2B30"/>
		</linearGradient>
		<polygon class="st2" points="146.8,182.8 137.9,168.1 107.6,186.5 70.2,168 62.6,183.4 108.5,206.1 		"/>
		<linearGradient id="SVGID_4_" gradientUnits="userSpaceOnUse" x1="332.6695" y1="-46.5387" x2="-34.8121" y2="367.4406">
			<stop  offset="0" style="stop-color:#824146"/>
			<stop  offset="1" style="stop-color:#6E2B30"/>
		</linearGradient>
		<polygon class="st3" points="107.6,217.2 70.2,198.7 62.6,214 108.5,236.7 146.8,213.4 137.9,198.8 		"/>
		<linearGradient id="SVGID_5_" gradientUnits="userSpaceOnUse" x1="347.8859" y1="-33.0314" x2="-19.5958" y2="380.9479">
			<stop  offset="0" style="stop-color:#824146"/>
			<stop  offset="1" style="stop-color:#6E2B30"/>
		</linearGradient>
		<polygon class="st4" points="107.6,247.8 70.2,229.3 62.6,244.7 108.5,267.4 146.8,244 137.9,229.4 		"/>
		<linearGradient id="SVGID_6_" gradientUnits="userSpaceOnUse" x1="363.1034" y1="-19.5231" x2="-4.3782" y2="394.4562">
			<stop  offset="0" style="stop-color:#824146"/>
			<stop  offset="1" style="stop-color:#6E2B30"/>
		</linearGradient>
		<polygon class="st5" points="146.8,274.7 137.9,260 107.6,278.5 70.2,260 62.6,275.3 108.5,298 		"/>
		<linearGradient id="SVGID_7_" gradientUnits="userSpaceOnUse" x1="378.309" y1="-6.0254" x2="10.8273" y2="407.9539">
			<stop  offset="0" style="stop-color:#824146"/>
			<stop  offset="1" style="stop-color:#6E2B30"/>
		</linearGradient>
		<polygon class="st6" points="107.6,309.1 70.2,290.6 62.6,306 108.5,328.7 146.8,305.3 137.9,290.7 		"/>
		<linearGradient id="SVGID_8_" gradientUnits="userSpaceOnUse" x1="393.5262" y1="7.4826" x2="26.0445" y2="421.4619">
			<stop  offset="0" style="stop-color:#824146"/>
			<stop  offset="1" style="stop-color:#6E2B30"/>
		</linearGradient>
		<polygon class="st7" points="137.9,321.3 107.6,339.7 70.2,321.2 62.6,336.6 108.5,359.3 146.8,336 		"/>
		<linearGradient id="SVGID_9_" gradientUnits="userSpaceOnUse" x1="524.2479" y1="123.5218" x2="156.7663" y2="537.5012">
			<stop  offset="0" style="stop-color:#824146"/>
			<stop  offset="1" style="stop-color:#6E2B30"/>
		</linearGradient>
		<path class="st8" d="M437.8,111.8h-48.1c-21.4,0-38.8,17.4-38.8,38.8v194.8c0,21.4,17.4,38.8,38.8,38.8h48.1
			c21.4,0,38.8-17.4,38.8-38.8V150.6C476.6,129.2,459.2,111.8,437.8,111.8z M459.4,150.6v194.8c0,11.9-9.7,21.6-21.6,21.6h-48.1
			c-11.9,0-21.6-9.7-21.6-21.6V150.6c0-11.9,9.7-21.6,21.6-21.6h48.1C449.7,129,459.4,138.7,459.4,150.6z"/>
		<linearGradient id="SVGID_10_" gradientUnits="userSpaceOnUse" x1="475.5239" y1="80.2705" x2="108.0423" y2="494.2498">
			<stop  offset="0" style="stop-color:#824146"/>
			<stop  offset="1" style="stop-color:#6E2B30"/>
		</linearGradient>
		<polygon class="st9" points="410.5,155.9 380.3,137.5 371.4,152.1 409.7,175.5 455.6,152.8 448,137.4 		"/>
		<linearGradient id="SVGID_11_" gradientUnits="userSpaceOnUse" x1="490.7348" y1="93.7729" x2="123.2532" y2="507.7522">
			<stop  offset="0" style="stop-color:#824146"/>
			<stop  offset="1" style="stop-color:#6E2B30"/>
		</linearGradient>
		<polygon class="st10" points="410.5,186.5 380.3,168.1 371.4,182.8 409.7,206.1 455.6,183.4 448,168 		"/>
		<linearGradient id="SVGID_12_" gradientUnits="userSpaceOnUse" x1="505.9468" y1="107.2763" x2="138.4652" y2="521.2556">
			<stop  offset="0" style="stop-color:#824146"/>
			<stop  offset="1" style="stop-color:#6E2B30"/>
		</linearGradient>
		<polygon class="st11" points="455.6,214 448,198.7 410.5,217.2 380.3,198.8 371.4,213.4 409.7,236.7 		"/>
		<linearGradient id="SVGID_13_" gradientUnits="userSpaceOnUse" x1="521.1631" y1="120.7835" x2="153.6815" y2="534.7628">
			<stop  offset="0" style="stop-color:#824146"/>
			<stop  offset="1" style="stop-color:#6E2B30"/>
		</linearGradient>
		<polygon class="st12" points="455.6,244.7 448,229.3 410.5,247.8 380.3,229.4 371.4,244 409.7,267.4 		"/>
		<linearGradient id="SVGID_14_" gradientUnits="userSpaceOnUse" x1="536.3741" y1="134.2861" x2="168.8925" y2="548.2654">
			<stop  offset="0" style="stop-color:#824146"/>
			<stop  offset="1" style="stop-color:#6E2B30"/>
		</linearGradient>
		<polygon class="st13" points="410.5,278.5 380.3,260 371.4,274.7 409.7,298 455.6,275.3 448,260 		"/>
		<linearGradient id="SVGID_15_" gradientUnits="userSpaceOnUse" x1="551.5861" y1="147.7895" x2="184.1045" y2="561.7688">
			<stop  offset="0" style="stop-color:#824146"/>
			<stop  offset="1" style="stop-color:#6E2B30"/>
		</linearGradient>
		<polygon class="st14" points="455.6,306 448,290.6 410.5,309.1 380.3,290.7 371.4,305.3 409.7,328.7 		"/>
		<linearGradient id="SVGID_16_" gradientUnits="userSpaceOnUse" x1="566.7971" y1="161.292" x2="199.3155" y2="575.2713">
			<stop  offset="0" style="stop-color:#824146"/>
			<stop  offset="1" style="stop-color:#6E2B30"/>
		</linearGradient>
		<polygon class="st15" points="410.5,339.7 380.3,321.3 371.4,336 409.7,359.3 455.6,336.6 448,321.2 		"/>
		<linearGradient id="SVGID_17_" gradientUnits="userSpaceOnUse" x1="350.7513" y1="-30.4878" x2="-16.7303" y2="383.4915">
			<stop  offset="0" style="stop-color:#824146"/>
			<stop  offset="1" style="stop-color:#6E2B30"/>
		</linearGradient>
		<path class="st16" d="M129.4,87.7H107c41.1-38.8,94.5-60.1,151.3-60.1c59,0,114.4,23,156.1,64.7c3.9,3.8,7.2,7.4,10.1,10.8
			l2.3,2.7l13.1-11.1l-2.3-2.7c-3.2-3.8-6.8-7.7-11-11.9c-44.9-45-104.6-69.8-168.2-69.8c-61.7,0-119.7,23.3-164.1,65.8V52.4H77
			v52.4h52.4V87.7z"/>
		<linearGradient id="SVGID_18_" gradientUnits="userSpaceOnUse" x1="524.2728" y1="123.544" x2="156.7912" y2="537.5233">
			<stop  offset="0" style="stop-color:#824146"/>
			<stop  offset="1" style="stop-color:#6E2B30"/>
		</linearGradient>
		<path class="st17" d="M387.1,408.3h22.4c-41,38.8-94.5,60.1-151.3,60.1c-58.6,0-113.7-22.7-155.2-63.9c-3.9-3.9-7.2-7.4-10.2-10.8
			l-2.3-2.6l-13,11.3l2.3,2.6c3.3,3.8,7,7.8,11,11.7c44.8,44.5,104.2,68.9,167.4,68.9c61.6,0,119.7-23.3,164.1-65.8v23.8h17.2v-52.4
			h-52.4V408.3z"/>
		<linearGradient id="SVGID_19_" gradientUnits="userSpaceOnUse" x1="502.4401" y1="104.1635" x2="134.9585" y2="518.1428">
			<stop  offset="0" style="stop-color:#824146"/>
			<stop  offset="1" style="stop-color:#6E2B30"/>
		</linearGradient>
		<path class="st18" d="M289.4,379.3c0-17.2-14-31.2-31.2-31.2c-17.2,0-31.2,14-31.2,31.2c0,17.2,14,31.2,31.2,31.2
			C275.4,410.5,289.4,396.5,289.4,379.3z M275.3,379.3c0,9.4-7.6,17-17,17s-17-7.6-17-17s7.6-17,17-17S275.3,369.9,275.3,379.3z"/>
		<linearGradient id="SVGID_20_" gradientUnits="userSpaceOnUse" x1="475.3437" y1="80.1105" x2="107.862" y2="494.0898">
			<stop  offset="0" style="stop-color:#824146"/>
			<stop  offset="1" style="stop-color:#6E2B30"/>
		</linearGradient>
		<rect x="252" y="308.6" class="st19" width="14.2" height="30.3"/>
		<linearGradient id="SVGID_21_" gradientUnits="userSpaceOnUse" x1="533.0785" y1="131.3606" x2="165.5969" y2="545.3399">
			<stop  offset="0" style="stop-color:#824146"/>
			<stop  offset="1" style="stop-color:#6E2B30"/>
		</linearGradient>
		<rect x="298.6" y="371.3" class="st20" width="30.3" height="14.2"/>
		<linearGradient id="SVGID_22_" gradientUnits="userSpaceOnUse" x1="530.0131" y1="128.6395" x2="162.5315" y2="542.6188">
			<stop  offset="0" style="stop-color:#824146"/>
			<stop  offset="1" style="stop-color:#6E2B30"/>
		</linearGradient>
		<rect x="250.3" y="419.7" class="st21" width="15.9" height="30.3"/>
		<linearGradient id="SVGID_23_" gradientUnits="userSpaceOnUse" x1="471.8016" y1="76.9662" x2="104.3199" y2="490.9456">
			<stop  offset="0" style="stop-color:#824146"/>
			<stop  offset="1" style="stop-color:#6E2B30"/>
		</linearGradient>
		<rect x="187.5" y="373" class="st22" width="30.3" height="14.2"/>
		<linearGradient id="SVGID_24_" gradientUnits="userSpaceOnUse" x1="544.7162" y1="141.6912" x2="177.2346" y2="555.6705">
			<stop  offset="0" style="stop-color:#824146"/>
			<stop  offset="1" style="stop-color:#6E2B30"/>
		</linearGradient>
		<polygon class="st23" points="314.8,425.9 291.8,402.8 281.8,412.8 304.7,435.8 		"/>
		<linearGradient id="SVGID_25_" gradientUnits="userSpaceOnUse" x1="460.1787" y1="66.6488" x2="92.697" y2="480.6281">
			<stop  offset="0" style="stop-color:#824146"/>
			<stop  offset="1" style="stop-color:#6E2B30"/>
		</linearGradient>
		<polygon class="st24" points="201.7,332.8 224.7,355.7 234.7,345.7 211.7,322.8 		"/>
		<linearGradient id="SVGID_26_" gradientUnits="userSpaceOnUse" x1="505.3748" y1="106.7686" x2="137.8932" y2="520.7479">
			<stop  offset="0" style="stop-color:#824146"/>
			<stop  offset="1" style="stop-color:#6E2B30"/>
		</linearGradient>
		<polygon class="st25" points="282.2,346.1 292.2,356.1 315.1,333.2 305.1,323.2 		"/>
		<linearGradient id="SVGID_27_" gradientUnits="userSpaceOnUse" x1="500.3978" y1="102.3506" x2="132.9162" y2="516.3299">
			<stop  offset="0" style="stop-color:#824146"/>
			<stop  offset="1" style="stop-color:#6E2B30"/>
		</linearGradient>
		<polygon class="st26" points="235.2,413.2 225.2,403.2 202.1,426.2 212.1,436.3 		"/>
		<linearGradient id="SVGID_28_" gradientUnits="userSpaceOnUse" x1="371.0137" y1="-12.5012" x2="3.5321" y2="401.4781">
			<stop  offset="0" style="stop-color:#824146"/>
			<stop  offset="1" style="stop-color:#6E2B30"/>
		</linearGradient>
		<polygon class="st27" points="196.8,121.1 243.9,121.1 234.3,130.7 208.3,130.7 208.3,141.8 223.2,141.8 204.5,160.5 212.4,168.4 
			232.3,148.4 232.3,166.2 243.5,166.2 243.5,137.3 251.8,129 251.8,177.4 263,177.4 263,129 273.4,139.4 273.4,166.2 284.6,166.2 
			284.6,150.6 302.4,168.4 310.3,160.5 291.6,141.8 308.3,141.8 308.3,130.7 280.4,130.7 270.9,121.1 319.7,121.1 319.7,109.9 
			270.9,109.9 278.9,101.8 308.3,101.8 308.3,90.7 290.1,90.7 310.3,70.5 302.4,62.6 284.6,80.5 284.6,66.4 273.4,66.4 273.4,91.6 
			263,102 263,54.5 251.8,54.5 251.8,102 243.5,93.7 243.5,66.4 232.3,66.4 232.3,82.6 212.4,62.6 204.5,70.5 224.7,90.7 
			208.3,90.7 208.3,101.8 235.8,101.8 243.9,109.9 196.8,109.9 		"/>
	</g>
</g>
</svg>
