<?xml version="1.0" encoding="utf-8"?>
<!-- Generator: Adobe Illustrator 22.0.0, SVG Export Plug-In . SVG Version: 6.00 Build 0)  -->
<svg version="1.1" id="Layer_1" xmlns="http://www.w3.org/2000/svg" xmlns:xlink="http://www.w3.org/1999/xlink" x="0px" y="0px"
	 viewBox="0 0 517.1 501.2" style="enable-background:new 0 0 517.1 501.2;" xml:space="preserve">
<style type="text/css">
	.st0{fill:url(#SVGID_1_);}
	.st1{fill:url(#SVGID_2_);}
	.st2{fill:url(#SVGID_3_);}
	.st3{fill:url(#SVGID_4_);}
	.st4{fill:url(#SVGID_5_);}
	.st5{fill:url(#SVGID_6_);}
	.st6{fill:url(#SVGID_7_);}
	.st7{fill:url(#SVGID_8_);}
</style>
<g>
	<linearGradient id="SVGID_1_" gradientUnits="userSpaceOnUse" x1="460.2704" y1="54.0841" x2="25.2922" y2="415.566">
		<stop  offset="0" style="stop-color:#824146"/>
		<stop  offset="1" style="stop-color:#6E2B30"/>
	</linearGradient>
	<path class="st0" d="M465.6,84.1H49.4c-16.8,0-30.5,13.7-30.5,30.5v216c0,16.8,13.7,30.5,30.5,30.5h416.2
		c16.8,0,30.5-13.7,30.5-30.5v-216C496.1,97.8,482.4,84.1,465.6,84.1z M480.1,330.6c0,8-6.5,14.5-14.5,14.5H49.4
		c-8,0-14.5-6.5-14.5-14.5v-216c0-8,6.5-14.5,14.5-14.5h416.2c8,0,14.5,6.5,14.5,14.5V330.6z"/>
	<linearGradient id="SVGID_2_" gradientUnits="userSpaceOnUse" x1="543.2238" y1="153.9034" x2="108.2455" y2="515.3854">
		<stop  offset="0" style="stop-color:#824146"/>
		<stop  offset="1" style="stop-color:#6E2B30"/>
	</linearGradient>
	<path class="st1" d="M20.3,384c0,25.2,20.5,45.7,45.7,45.7H449c25.2,0,45.7-20.5,45.7-45.7v-6.6H20.3V384z M480.8,390.6
		c-3.1,14.7-16.1,25.8-31.7,25.8H317.3v-4.6v-10.4h-10.3h-5.7h-1.7h-4h-5.7h-5.7h-5.7h-5.7H267h-5.7h-5.7h-5.7h-5.7h-5.7h-5.7H227
		h-5.7h-5h-0.7h-5.7h-5.7h-0.4L201,404l-2.4,2.3v1.1v5.8v3.2H66c-15.6,0-28.7-11.1-31.7-25.8H480.8z"/>
	<linearGradient id="SVGID_3_" gradientUnits="userSpaceOnUse" x1="387.4941" y1="-33.489" x2="-47.4841" y2="327.9929">
		<stop  offset="0" style="stop-color:#824146"/>
		<stop  offset="1" style="stop-color:#6E2B30"/>
	</linearGradient>
	<polygon class="st2" points="255.5,148 247,148 237.3,148 227.5,148 217.8,148 208,148 198.2,148 188.5,148 178.7,148 168.9,148 
		159.2,148 149.4,148 139.7,148 129.9,148 120.1,148 110.4,148 100.6,148 90.8,148 81.1,148 71.3,148 61.6,148 61,148 58,148 
		58,151 58,154.3 58,163 58,164.2 58,166 59.7,166 61,166 69.5,166 79.3,166 89,166 98.8,166 108.6,166 118.3,166 128.1,166 
		137.8,166 147.6,166 157.4,166 167.1,166 176.9,166 186.7,166 196.4,166 206.2,166 215.9,166 225.7,166 235.5,166 245.2,166 
		255,166 255.5,166 258.5,166 258.5,163 258.5,159.7 258.5,151 258.5,149.8 258.5,148 256.8,148 	"/>
	<linearGradient id="SVGID_4_" gradientUnits="userSpaceOnUse" x1="397.6837" y1="-21.2276" x2="-37.2945" y2="340.2543">
		<stop  offset="0" style="stop-color:#824146"/>
		<stop  offset="1" style="stop-color:#6E2B30"/>
	</linearGradient>
	<polygon class="st3" points="61,209.4 67,209.4 74.3,209.4 81.6,209.4 88.9,209.4 96.2,209.4 103.4,209.4 110.7,209.4 118,209.4 
		125.3,209.4 132.6,209.4 139.9,209.4 147.1,209.4 154.4,209.4 161.7,209.4 169,209.4 176.3,209.4 183.5,209.4 190.8,209.4 
		198.1,209.4 201,209.4 204,209.4 204,208 204,206.4 204,200.6 204,194.4 204,193.2 204,191.4 202.3,191.4 201,191.4 195,191.4 
		187.7,191.4 180.4,191.4 173.1,191.4 165.8,191.4 158.6,191.4 151.3,191.4 144,191.4 136.7,191.4 129.4,191.4 122.1,191.4 
		114.9,191.4 107.6,191.4 100.3,191.4 93,191.4 85.7,191.4 78.5,191.4 71.2,191.4 63.9,191.4 61,191.4 58,191.4 58,192.8 58,194.4 
		58,200.2 58,206.4 58,207.6 58,209.4 59.7,209.4 	"/>
	<linearGradient id="SVGID_5_" gradientUnits="userSpaceOnUse" x1="440.3467" y1="30.1095" x2="5.3685" y2="391.5915">
		<stop  offset="0" style="stop-color:#824146"/>
		<stop  offset="1" style="stop-color:#6E2B30"/>
	</linearGradient>
	<polygon class="st4" points="201,278.2 195,278.2 187.7,278.2 180.4,278.2 173.1,278.2 165.8,278.2 158.6,278.2 151.3,278.2 
		144,278.2 136.7,278.2 129.4,278.2 122.1,278.2 114.9,278.2 107.6,278.2 100.3,278.2 93,278.2 85.7,278.2 78.5,278.2 71.2,278.2 
		63.9,278.2 61,278.2 58,278.2 58,279.6 58,281.2 58,287 58,293.2 58,294.4 58,296.2 59.7,296.2 61,296.2 67,296.2 74.3,296.2 
		81.6,296.2 88.9,296.2 96.2,296.2 103.4,296.2 110.7,296.2 118,296.2 125.3,296.2 132.6,296.2 139.9,296.2 147.1,296.2 
		154.4,296.2 161.7,296.2 169,296.2 176.3,296.2 183.5,296.2 190.8,296.2 198.1,296.2 201,296.2 204,296.2 204,294.8 204,293.2 
		204,287.4 204,281.2 204,280 204,278.2 202.3,278.2 	"/>
	<linearGradient id="SVGID_6_" gradientUnits="userSpaceOnUse" x1="425.1428" y1="11.8143" x2="-9.8355" y2="373.2962">
		<stop  offset="0" style="stop-color:#824146"/>
		<stop  offset="1" style="stop-color:#6E2B30"/>
	</linearGradient>
	<polygon class="st5" points="231,234.8 223.6,234.8 215,234.8 206.3,234.8 197.7,234.8 189,234.8 180.4,234.8 171.7,234.8 
		163.1,234.8 154.4,234.8 145.8,234.8 137.1,234.8 128.5,234.8 119.9,234.8 111.2,234.8 102.6,234.8 93.9,234.8 85.3,234.8 
		76.6,234.8 68,234.8 61,234.8 59.3,234.8 58,234.8 58,237.8 58,242.2 58,249.8 58,251 58,252.8 59.7,252.8 61,252.8 68.4,252.8 
		77,252.8 85.7,252.8 94.3,252.8 103,252.8 111.6,252.8 120.3,252.8 128.9,252.8 137.6,252.8 146.2,252.8 154.9,252.8 163.5,252.8 
		172.1,252.8 180.8,252.8 189.4,252.8 198.1,252.8 206.7,252.8 215.4,252.8 224,252.8 231,252.8 232.7,252.8 234,252.8 234,249.8 
		234,245.4 234,237.8 234,236.6 234,234.8 232.3,234.8 	"/>
	<linearGradient id="SVGID_7_" gradientUnits="userSpaceOnUse" x1="513.986" y1="118.7211" x2="79.0077" y2="480.203">
		<stop  offset="0" style="stop-color:#824146"/>
		<stop  offset="1" style="stop-color:#6E2B30"/>
	</linearGradient>
	<path class="st6" d="M432,226.5c-4.4,0-8,3.6-8,8v35.2c0,5.7-4.6,10.3-10.3,10.3h-78c-5.7,0-10.3-4.6-10.3-10.3v-70.3
		c0-5.7,4.6-10.3,10.3-10.3h39c4.4,0,8-3.6,8-8s-3.6-8-8-8h-39c-14.5,0-26.3,11.8-26.3,26.3v70.3c0,14.5,11.8,26.3,26.3,26.3h78
		c14.5,0,26.3-11.8,26.3-26.3v-35.2C440,230.1,436.4,226.5,432,226.5z"/>
	<linearGradient id="SVGID_8_" gradientUnits="userSpaceOnUse" x1="509.6208" y1="113.4684" x2="74.6426" y2="474.9503">
		<stop  offset="0" style="stop-color:#824146"/>
		<stop  offset="1" style="stop-color:#6E2B30"/>
	</linearGradient>
	<path class="st7" d="M354.8,217.1c-3-3.2-8.1-3.4-11.3-0.4c-3.2,3-3.4,8.1-0.4,11.3l25.7,27.4c1.5,1.6,3.6,2.5,5.8,2.5
		c0.1,0,0.2,0,0.3,0c2.3-0.1,4.5-1.2,5.9-3l57.3-73c2.7-3.5,2.1-8.5-1.3-11.2c-3.5-2.7-8.5-2.1-11.2,1.3l-51.6,65.6L354.8,217.1z"/>
</g>
</svg>
