<?xml version="1.0" encoding="utf-8"?>
<!-- Generator: Adobe Illustrator 22.0.0, SVG Export Plug-In . SVG Version: 6.00 Build 0)  -->
<svg version="1.1" id="Layer_1" xmlns="http://www.w3.org/2000/svg" xmlns:xlink="http://www.w3.org/1999/xlink" x="0px" y="0px"
	 viewBox="0 0 517.1 501.2" style="enable-background:new 0 0 517.1 501.2;" xml:space="preserve">
<style type="text/css">
	.st0{fill:#E5E4E9;}
</style>
<g>
	<path class="st0" d="M176,213.2H98c-3.3,0-6-2.7-6-6s2.7-6,6-6h78c3.3,0,6,2.7,6,6S179.3,213.2,176,213.2z"/>
</g>
<g>
	<path class="st0" d="M73,213.2H55c-3.3,0-6-2.7-6-6s2.7-6,6-6h18c3.3,0,6,2.7,6,6S76.3,213.2,73,213.2z"/>
</g>
<g>
	<path class="st0" d="M176,316.9H98c-3.3,0-6-2.7-6-6s2.7-6,6-6h78c3.3,0,6,2.7,6,6S179.3,316.9,176,316.9z"/>
</g>
<g>
	<path class="st0" d="M73,316.9H55c-3.3,0-6-2.7-6-6s2.7-6,6-6h18c3.3,0,6,2.7,6,6S76.3,316.9,73,316.9z"/>
</g>
<g>
	<path class="st0" d="M160,265.2H62c-3.3,0-6-2.7-6-6c0-3.3,2.7-6,6-6h98c3.3,0,6,2.7,6,6C166,262.5,163.3,265.2,160,265.2z"/>
</g>
<g>
	<path class="st0" d="M37,265.2H19c-3.3,0-6-2.7-6-6c0-3.3,2.7-6,6-6h18c3.3,0,6,2.7,6,6C43,262.5,40.3,265.2,37,265.2z"/>
</g>
<path class="st0" d="M123,240h20.1c0.3-4.7,0.7-9.4,1.4-14.1h-20.2C123.7,230.6,123.3,235.3,123,240z"/>
<g>
	<path class="st0" d="M145.4,278.4h-20.2c0.7,4.5,1.6,8.9,2.6,13.3h20.5C147.1,287.4,146.1,282.9,145.4,278.4z"/>
	<path class="st0" d="M307.5,64.5c-80.2,0-148.6,51.4-174.1,123h21.4C179.4,126.8,238.8,84,308.3,84c91.4,0,165.5,74.1,165.5,165.5
		s-74.1,165.5-165.5,165.5c-62.1,0-116.2-34.2-144.5-84.8h-22.3c30.1,61.4,93.2,103.8,166,103.8c101.9,0,184.7-82.9,184.7-184.7
		C492.3,147.4,409.4,64.5,307.5,64.5z"/>
</g>
<g>
	<path class="st0" d="M163.3,278.4h-10.9c0.8,4.5,1.9,8.9,3.1,13.3h11.2C165.3,287.4,164.2,283,163.3,278.4z"/>
	<path class="st0" d="M308.3,90.9c-65.6,0-121.8,39.8-145.9,96.6h11.7c6.9-14.9,16.1-28.4,27.3-40.1c84.7,12.3,43.7,97.7,92.8,110
		c-35.2,12.8-67-61.1-133.4-17.8c0.3-4.6,0.8-9.1,1.6-13.6h-10.9c-0.7,4.6-1.2,9.3-1.4,14.1h33.8c53.1-18.4,82,48,120.1,24.9
		c-15.7,34.2-90.7,4.1-107,81.8c-4.6-5.2-8.7-10.7-12.5-16.6h-12.6c27.6,46.6,78.4,77.8,136.5,77.8c87.6,0,158.5-71,158.5-158.5
		C466.8,161.9,395.8,90.9,308.3,90.9z M456,246.1c-68.7,51.2-100.1-38.4-143.5-12c15.6-34.2,90.7-4.1,107-81.9
		C441.6,177.4,455.2,210.2,456,246.1z M292.9,245.2c-34.2-15.6-4.1-90.7-81.9-107c25.2-22,58-35.7,93.9-36.5
		C356.1,170.4,266.5,201.8,292.9,245.2z M300.4,235.6c-13.1-35.3,61.2-67.1,17.8-133.6c35.7,2.4,67.9,17.4,92.2,40.6
		C398,227.4,312.5,186.3,300.4,235.6z M206.2,356.3c12.3-84.8,97.9-43.7,110-93c13.1,35.3-61.2,67.1-17.8,133.6
		C262.7,394.6,230.5,379.6,206.2,356.3z M311.6,397.2c-51.2-68.7,38.4-100.1,12-143.5c34.2,15.6,4.1,90.7,81.9,107
		C380.3,382.8,347.6,396.4,311.6,397.2z M415.1,351.6c-84.8-12.3-43.7-97.9-93-110c35.3-13.2,67.1,61.2,133.6,17.8
		C453.4,295,438.4,327.3,415.1,351.6z"/>
</g>
</svg>
