<?xml version="1.0" encoding="utf-8"?>
<!-- Generator: Adobe Illustrator 22.0.0, SVG Export Plug-In . SVG Version: 6.00 Build 0)  -->
<svg version="1.1" id="Layer_1" xmlns="http://www.w3.org/2000/svg" xmlns:xlink="http://www.w3.org/1999/xlink" x="0px" y="0px"
	 viewBox="0 0 517.1 501.2" style="enable-background:new 0 0 517.1 501.2;" xml:space="preserve">
<style type="text/css">
	.st0{fill:none;stroke:#E5E4E9;stroke-width:15;stroke-miterlimit:10;}
	.st1{fill:none;stroke:#E5E4E9;stroke-width:12;stroke-miterlimit:10;}
	.st2{fill:none;stroke:#E5E4E9;stroke-width:12;stroke-linecap:square;stroke-miterlimit:10;}
</style>
<g>
	<path class="st0" d="M450.8,223.5H65.4c-17.2,0-31.3-14.1-31.3-31.3v-89.3c0-17.2,14.1-31.3,31.3-31.3h385.3
		c17.2,0,31.3,14.1,31.3,31.3v89.3C482.1,209.4,468,223.5,450.8,223.5z"/>
	<line class="st1" x1="34.1" y1="126" x2="478" y2="126"/>
	<line class="st1" x1="34.1" y1="170.1" x2="478" y2="170.1"/>
	<line class="st2" x1="123.6" y1="78.1" x2="81.3" y2="122.3"/>
	<line class="st2" x1="202.2" y1="78.1" x2="159.9" y2="122.3"/>
	<line class="st2" x1="280.7" y1="78.1" x2="238.4" y2="122.3"/>
	<line class="st2" x1="359.3" y1="78.1" x2="317" y2="122.3"/>
	<line class="st2" x1="437.9" y1="78.1" x2="395.6" y2="122.3"/>
	<line class="st2" x1="123.6" y1="220.1" x2="81.3" y2="175.9"/>
	<line class="st2" x1="202.2" y1="220.1" x2="159.9" y2="175.9"/>
	<line class="st2" x1="280.7" y1="220.1" x2="238.4" y2="175.9"/>
	<line class="st2" x1="359.3" y1="220.1" x2="317" y2="175.9"/>
	<line class="st2" x1="437.9" y1="220.1" x2="395.6" y2="175.9"/>
</g>
<g>
	<path class="st0" d="M450.8,427.8H65.4c-17.2,0-31.3-14.1-31.3-31.3v-89.3c0-17.2,14.1-31.3,31.3-31.3h385.3
		c17.2,0,31.3,14.1,31.3,31.3v89.3C482.1,413.7,468,427.8,450.8,427.8z"/>
	<line class="st1" x1="34.1" y1="330.4" x2="478" y2="330.4"/>
	<line class="st1" x1="34.1" y1="374.4" x2="478" y2="374.4"/>
	<line class="st2" x1="123.6" y1="282.4" x2="81.3" y2="326.6"/>
	<line class="st2" x1="202.2" y1="282.4" x2="159.9" y2="326.6"/>
	<line class="st2" x1="280.7" y1="282.4" x2="238.4" y2="326.6"/>
	<line class="st2" x1="359.3" y1="282.4" x2="317" y2="326.6"/>
	<line class="st2" x1="437.9" y1="282.4" x2="395.6" y2="326.6"/>
	<line class="st2" x1="123.6" y1="424.4" x2="81.3" y2="380.3"/>
	<line class="st2" x1="202.2" y1="424.4" x2="159.9" y2="380.3"/>
	<line class="st2" x1="280.7" y1="424.4" x2="238.4" y2="380.3"/>
	<line class="st2" x1="359.3" y1="424.4" x2="317" y2="380.3"/>
	<line class="st2" x1="437.9" y1="424.4" x2="395.6" y2="380.3"/>
</g>
</svg>
