<?xml version="1.0" encoding="utf-8"?>
<!-- Generator: Adobe Illustrator 22.0.0, SVG Export Plug-In . SVG Version: 6.00 Build 0)  -->
<svg version="1.1" id="Layer_1" xmlns="http://www.w3.org/2000/svg" xmlns:xlink="http://www.w3.org/1999/xlink" x="0px" y="0px"
	 viewBox="0 0 517.1 501.2" style="enable-background:new 0 0 517.1 501.2;" xml:space="preserve">
<style type="text/css">
	.st0{display:none;}
	.st1{display:inline;fill:#0C0533;}
	.st2{fill:#E5E4E9;}
</style>
<g id="svg6241" xmlns:cc="http://creativecommons.org/ns#" xmlns:dc="http://purl.org/dc/elements/1.1/" xmlns:rdf="http://www.w3.org/1999/02/22-rdf-syntax-ns#" xmlns:svg="http://www.w3.org/2000/svg" class="st0">
	<rect x="0.2" class="st1" width="517.1" height="501.2"/>
</g>
<path class="st2" d="M292.7,263.8c46.1,0,83.7,37.5,83.7,83.7s-37.5,83.7-83.7,83.7S209,393.7,209,347.5S246.5,263.8,292.7,263.8
	 M292.7,246.6c-55.7,0-100.9,45.2-100.9,100.9s45.2,100.9,100.9,100.9s100.9-45.2,100.9-100.9S348.4,246.6,292.7,246.6L292.7,246.6z
	"/>
<path class="st2" d="M292.7,263.8c46.1,0,83.7,37.5,83.7,83.7s-37.5,83.7-83.7,83.7S209,393.7,209,347.5S246.5,263.8,292.7,263.8
	 M292.7,246.6c-55.7,0-100.9,45.2-100.9,100.9s45.2,100.9,100.9,100.9s100.9-45.2,100.9-100.9S348.4,246.6,292.7,246.6L292.7,246.6z
	"/>
<g>
	<path class="st2" d="M176.3,330.9c-8.4,2.4-17.2,3.7-26.4,3.7c-52.6,0-95.4-42.8-95.4-95.4c0-52.6,42.8-95.4,95.4-95.4
		c52.6,0,95.4,42.8,95.4,95.4c0,0.2,0,0.5,0,0.7c1.8-0.8,3.7-1.6,5.5-2.3c-0.8-55-45.7-99.3-100.9-99.3
		c-55.7,0-100.9,45.2-100.9,100.9c0,55.7,45.2,100.9,100.9,100.9c8.9,0,17.5-1.1,25.7-3.3C175.8,334.9,176,332.9,176.3,330.9z"/>
</g>
<g>
	<path class="st2" d="M175.4,354.9c-8.3,1.8-16.8,2.7-25.4,2.7c-31.6,0-61.3-12.3-83.7-34.7c-22.4-22.4-34.7-52.1-34.7-83.7
		s12.3-61.3,34.7-83.7c22.4-22.4,52.1-34.7,83.7-34.7s61.3,12.3,83.7,34.7c20.8,20.8,32.9,47.9,34.5,77c7.8-1.7,15.9-2.5,24.2-2.6
		C287.6,155.5,225.7,96.5,150,96.5C71.1,96.5,7.3,160.4,7.3,239.2S71.1,381.9,150,381.9c10.1,0,19.9-1.1,29.4-3
		C177.2,371.2,175.9,363.1,175.4,354.9z"/>
</g>
<g>
	<path class="st2" d="M334.4,84.3c-30.9,0-59.1,11.4-80.8,30.2c1.7,1.5,3.5,2.9,5.1,4.5c21.1-18.1,47.6-27.9,75.6-27.9
		c31.1,0,60.3,12.1,82.3,34.1c22,22,34.1,51.2,34.1,82.3c0,31.1-12.1,60.3-34.1,82.3c-5.9,5.9-12.4,11.1-19.2,15.6
		c0.9,2.1,1.6,4.3,2.4,6.5c34.7-21.8,57.7-60.4,57.7-104.3C457.6,139.4,402.5,84.3,334.4,84.3z"/>
</g>
<g>
	<path class="st2" d="M328.4,34.4c-47.8,1.7-90.4,22.6-120.7,54.9c10,3.6,19.6,8.1,28.6,13.4c25.4-23.7,58.1-37.3,93.2-38.6
		c38.6-1.4,75.3,12.3,103.6,38.6c28.2,26.3,44.6,62,46,100.5c1,27.2-5.7,54-19.3,77.5c-12.2,21.1-29.5,38.7-50.2,51.2
		c0.7,4.5,1.2,9.2,1.4,13.9c0.2,6.7-0.1,13.3-1,19.7c2.9-1.4,5.8-2.9,8.6-4.4c55.8-30.7,92.7-91,90.2-159
		C505.3,106,424.6,30.9,328.4,34.4z"/>
</g>
<path class="st2" d="M292.7,280.1c37.2,0,67.4,30.3,67.4,67.4S329.8,415,292.7,415s-67.4-30.3-67.4-67.4S255.5,280.1,292.7,280.1
	 M292.7,276.2c-39.4,0-71.3,31.9-71.3,71.3s31.9,71.3,71.3,71.3s71.3-31.9,71.3-71.3S332.1,276.2,292.7,276.2L292.7,276.2z"/>
</svg>
