<?xml version="1.0" encoding="utf-8"?>
<!-- Generator: Adobe Illustrator 22.0.0, SVG Export Plug-In . SVG Version: 6.00 Build 0)  -->
<svg version="1.1" id="Layer_1" xmlns="http://www.w3.org/2000/svg" xmlns:xlink="http://www.w3.org/1999/xlink" x="0px" y="0px"
	 viewBox="0 0 517.1 501.2" style="enable-background:new 0 0 517.1 501.2;" xml:space="preserve">
<style type="text/css">
	.st0{fill:#E5E4E9;}
	.st1{fill:none;stroke:#E5E4E9;stroke-width:15;stroke-miterlimit:10;}
	.st2{fill:none;stroke:#E5E4E9;stroke-width:11.7258;stroke-miterlimit:10;}
	.st3{fill:none;stroke:#E5E4E9;stroke-width:11.726;stroke-linecap:round;stroke-miterlimit:10;}
</style>
<path class="st0" d="M499.3,240.8c4.7-18.7,16.7-71.5-30.7-102.4c-47.3-30.9-85.3-34.3-85.3-34.3s-8,12-10,12s-4-14.3-3.8-15.3
	L349,98.5c0,0-1.5,6.5-4.5,6.2c-3-0.3-1.7-7.5-1.7-7.5L310,95.3c0,0-5.5,15.7-8,15.7s-15.5,2-18-3.5S279,93,274,93s-13,0-13,0
	s-2,5.3-4,5.3s-4-5.3-4-5.3s-8,0-13,0s-7.5,9-10,14.5s-15.5,3.5-18,3.5s-8-15.7-8-15.7l-32.8,1.8c0,0,1.3,7.2-1.7,7.5
	c-3,0.3-4.5-6.2-4.5-6.2l-20.5,2.3c0.2,1-1.8,15.3-3.8,15.3s-10-12-10-12s-38,3.3-85.3,34.3C-2,169.4,10,222.2,14.7,240.8
	c4.7,18.7-2.7,36.7-2.7,36.7c32.7-2,33.3,32.7,33.3,32.7l32.7-4.7c0,0,0-7-20.5-47.5s-18.5-72,41-104S257,130,257,130s99-8,158.5,24
	s61.5,63.5,41,104S436,305.5,436,305.5l32.7,4.7c0,0,0.7-34.7,33.3-32.7C502,277.5,494.7,259.5,499.3,240.8z"/>
<path class="st1" d="M362.7,267.3v-44l-105.3-48l-105.3,48v44c0,0-8.7,94,105.3,148.7C371.3,361.3,362.7,267.3,362.7,267.3z"/>
<path class="st2" d="M339.7,273.5v-34.4l-82.3-37.5L175,239.1v34.4c0,0-6.8,73.5,82.3,116.2C346.4,347,339.7,273.5,339.7,273.5z"/>
<line class="st3" x1="296.1" y1="278.2" x2="305.2" y2="266"/>
<polyline class="st3" points="221.9,296.2 255.6,332.2 280.4,299.1 "/>
</svg>
